# xmcd
#
# Track frame offsets:
#	150
#	4826
#	22720
#	39757
#	55909
#	77214
#	79425
#	94772
#	114581
#	115700
#	134711
#	151768
#	167085
#	185079
#
# Disc length: 2686 seconds
#
# Revision: 1
# Processed by: cddbd v1.5.1PL0 Copyright (c) Steve Scherf et al.
# Submitted via: audiograbber 1.83.01
#
DISCID=a90a7c0e
DTITLE=Rednex - Farm Out
DYEAR=1900
DGENRE=Pop
TTITLE0=Intro - Freshpigsand More
TTITLE1=The Spirit Of The Hawk
TTITLE2=The Way I Mate
TTITLE3=The Devil Went Down To Georgia
TTITLE4=Hold Me For A While
TTITLE5=Boring...
TTITLE6=Where You Gonna Go
TTITLE7=Maggie Moonshine - Extended Version
TTITLE8=Animal In The Rain
TTITLE9=Ranger Jack
TTITLE10=Get The Truck Loaded
TTITLE11=Is He Alive
TTITLE12=Mckenzie Brothers Ii (Continued...)
TTITLE13=Bottleneck Bob 2000
EXTD=
EXTT0=
EXTT1=
EXTT2=
EXTT3=
EXTT4=
EXTT5=
EXTT6=
EXTT7=
EXTT8=
EXTT9=
EXTT10=
EXTT11=
EXTT12=
EXTT13=
PLAYORDER=
